# xmcd
#
# Track frame offsets: 
#        150
#        16137
#        31202
#        52189
#        67630
#        85385
#        104430
#        120702
#        137455
#        155990
#        174752
#        196532
#        218397
#        234184
#        251042
#        265590
#        282650
#        301620
#
# Disc length: 4318 seconds
#
# Revision: 1
# Processed by: cddbd v1.5.2PL0 Copyright (c) Steve Scherf et al.
# Submitted via: ExactAudioCopy v1.0b1
#
DISCID=e310dc12
DTITLE=אחינועם ניני - אוסף ראשון
DYEAR=2001
DGENRE=Avantgarde
TTITLE0=החיים יפים
TTITLE1=מילימטר
TTITLE2=הוא (בואי כלה)
TTITLE3=פאראנויה
TTITLE4=מזמור לילה (קרן אור)
TTITLE5=ננוע
TTITLE6=בעיניה
TTITLE7=היא
TTITLE8=עקרה (אורי)
TTITLE9=ילדוה עם צמות
TTITLE10=אילנות
TTITLE11=שיר משמר (שימרי נפשך)
TTITLE12=אבל אהבה
TTITLE13=בוקר
TTITLE14=ניגע אל החלום
TTITLE15=לאט כהולם הלב
TTITLE16=הסתיו בלעדיו
TTITLE17=פיזמון ליקינטון
EXTD=YEAR: 2001
EXTT0=
EXTT1=
EXTT2=
EXTT3=
EXTT4=
EXTT5=
EXTT6=
EXTT7=
EXTT8=
EXTT9=
EXTT10=
EXTT11=
EXTT12=
EXTT13=
EXTT14=
EXTT15=
EXTT16=
EXTT17=
PLAYORDER=
